<?xml version="1.0" encoding="UTF-8" standalone="no"?>
<!-- Created with Inkscape (http://www.inkscape.org/) -->

<svg
   width="13.744095"
   height="13.744141"
   viewBox="0 0 13.744095 13.744141"
   version="1.1"
   id="svg1"
   xml:space="preserve"
   xmlns="http://www.w3.org/2000/svg"
   xmlns:svg="http://www.w3.org/2000/svg"><defs
     id="defs1" /><g
     id="layer1"
     transform="translate(-8.7304688,-8.7675781)"><g
       id="g16"
       transform="translate(7.8125,0.0625)"><g
         id="g5"
         transform="translate(-8.0625001,0.49999997)"><path
           id="path1"
           style="fill:#000000;stroke-width:9.1859"
           d="m 15.865234,8.2050781 -4.49414,2.1425779 1.826172,0.732422 v 1.226563 a 3.8669903,3.8669903 0 0 1 2.646484,-1.060547 3.8669903,3.8669903 0 0 1 2.693359,1.09375 v -1.144532 c -0.560883,-0.381615 -1.316795,-0.723967 -1.90039,-0.890624 0.42887,0.07245 0.903473,0.164336 1.980469,0.748046 l 1.716796,-0.71875 z" /><path
           id="path2"
           style="fill:#000000;stroke-width:9.1859"
           d="m 18.537109,17.876953 a 3.8669903,3.8669903 0 0 1 -2.693359,1.103516 3.8669903,3.8669903 0 0 1 -2.646484,-1.058594 v 1.041016 c 0.563864,0.390517 1.338713,0.742229 1.933593,0.912109 -0.433261,-0.07319 -0.915064,-0.165675 -2.015625,-0.765625 l -1.74414,0.697266 4.49414,2.142578 4.46875,-2.128907 -1.796875,-0.751953 z" /><path
           id="path3"
           style="fill:#000000;stroke-width:9.1859"
           d="m 20.582031,10.595703 -0.728515,1.826172 h -0.002 -1.232421 a 3.8669903,3.8669903 0 0 1 1.091797,2.691406 3.8669903,3.8669903 0 0 1 -1.060547,2.650391 h 1.101562 c 0.366023,-0.554346 0.690516,-1.2798 0.851563,-1.84375 -0.07137,0.42249 -0.161994,0.890175 -0.722657,1.933594 l 0.714844,1.705078 2.128906,-4.46875 z" /><path
           id="path4"
           style="fill:#000000;stroke-width:9.1859"
           d="m 11.123047,10.595703 -2.1425782,4.494141 2.1289062,4.46875 0.751953,-1.794922 h 1.177734 a 3.8669903,3.8669903 0 0 1 -1.0625,-2.650391 3.8669903,3.8669903 0 0 1 1.105469,-2.691406 h -1.109375 c -0.37958,0.560123 -0.718843,1.311555 -0.884765,1.892578 0.07209,-0.426765 0.162247,-0.899014 0.738281,-1.964844 z" /><path
           id="path5"
           style="fill:#000000;stroke-width:14.3801"
           d="m 15.843214,11.644954 a 3.4692428,3.4692428 0 0 0 -3.46875,3.46875 3.4692428,3.4692428 0 0 0 3.46875,3.470703 3.4692428,3.4692428 0 0 0 3.46875,-3.470703 3.4692428,3.4692428 0 0 0 -3.46875,-3.46875 z m 0,1.966797 a 1.5026021,1.5026021 0 0 1 1.503906,1.501953 1.5026021,1.5026021 0 0 1 -1.503906,1.503906 1.5026021,1.5026021 0 0 1 -1.501953,-1.503906 1.5026021,1.5026021 0 0 1 1.501953,-1.501953 z" /><circle
           style="fill:#000000;stroke-width:4.48805"
           id="circle5"
           cx="15.843611"
           cy="15.114408"
           r="1.0827575" /></g><path
         id="path7"
         style="fill:#000000;stroke-width:9.1859"
         d="m 7.8027339,8.7050781 -4.49414,2.1425779 1.826172,0.732422 v 1.226563 a 3.8669903,3.8669903 0 0 1 2.646484,-1.060547 3.8669903,3.8669903 0 0 1 2.6933591,1.09375 V 11.695312 C 9.9137259,11.313697 9.1578139,10.971345 8.5742189,10.804688 c 0.42887,0.07245 0.903473,0.164336 1.9804691,0.748046 l 1.716796,-0.71875 z" /><path
         id="path8"
         style="fill:#000000;stroke-width:9.1859"
         d="m 10.474609,18.376953 a 3.8669903,3.8669903 0 0 1 -2.6933591,1.103516 3.8669903,3.8669903 0 0 1 -2.646484,-1.058594 v 1.041016 c 0.563864,0.390517 1.338713,0.742229 1.933593,0.912109 -0.433261,-0.07319 -0.915064,-0.165675 -2.015625,-0.765625 l -1.74414,0.697266 4.49414,2.142578 4.4687501,-2.128907 -1.796875,-0.751953 z" /><path
         id="path9"
         style="fill:#000000;stroke-width:9.1859"
         d="m 12.519531,11.095703 -0.728515,1.826172 h -0.002 -1.232421 a 3.8669903,3.8669903 0 0 1 1.091797,2.691406 3.8669903,3.8669903 0 0 1 -1.060547,2.650391 h 1.101562 c 0.366023,-0.554346 0.690516,-1.2798 0.851563,-1.84375 -0.07137,0.42249 -0.161994,0.890175 -0.722657,1.933594 l 0.714844,1.705078 2.128906,-4.46875 z" /><path
         id="path10"
         style="fill:#000000;stroke-width:9.1859"
         d="m 3.0605469,11.095703 -2.1425782,4.494141 2.1289062,4.46875 0.751953,-1.794922 h 1.177734 a 3.8669903,3.8669903 0 0 1 -1.0625,-2.650391 3.8669903,3.8669903 0 0 1 1.105469,-2.691406 h -1.109375 c -0.37958,0.560123 -0.718843,1.311555 -0.884765,1.892578 0.07209,-0.426765 0.162247,-0.899014 0.738281,-1.964844 z" /><path
         id="path11"
         style="fill:#000000;stroke-width:14.3801"
         d="m 7.7807139,12.144954 a 3.4692428,3.4692428 0 0 0 -3.46875,3.46875 3.4692428,3.4692428 0 0 0 3.46875,3.470703 3.4692428,3.4692428 0 0 0 3.4687501,-3.470703 3.4692428,3.4692428 0 0 0 -3.4687501,-3.46875 z m 0,1.966797 a 1.5026021,1.5026021 0 0 1 1.503906,1.501953 1.5026021,1.5026021 0 0 1 -1.503906,1.503906 1.5026021,1.5026021 0 0 1 -1.501953,-1.503906 1.5026021,1.5026021 0 0 1 1.501953,-1.501953 z" /><circle
         style="fill:#000000;stroke-width:4.48805"
         id="circle11"
         cx="7.7811108"
         cy="15.614408"
         r="1.0827575" /></g></g></svg>
