<?xml version="1.0" encoding="UTF-8" standalone="no"?>
<!-- Created with Inkscape (http://www.inkscape.org/) -->

<svg
   width="56.417812mm"
   height="56.417816mm"
   viewBox="0 0 56.417811 56.417815"
   version="1.1"
   id="svg1"
   xmlns="http://www.w3.org/2000/svg"
   xmlns:svg="http://www.w3.org/2000/svg">
  <defs
     id="defs1" />
  <g
     id="g3"
     transform="translate(-28.759595,-33.343267)">
    <circle
       style="fill:#ffffff;fill-opacity:1;stroke:#ffffff;stroke-width:0.414308;stroke-dasharray:none"
       id="path2"
       cx="56.968502"
       cy="61.552174"
       r="28.001753" />
    <g
       id="g2"
       transform="translate(0.74835477,-0.46772155)">
      <path
         id="path31"
         style="fill:#333333;fill-opacity:1;stroke-width:0.382;stroke-dasharray:none"
         d="m 37.918221,56.709066 v 10.89776 h 0.809115 l -0.250083,-10.89776 z" />
      <circle
         style="fill:#333333;fill-opacity:1;stroke-width:0.382;stroke-dasharray:none"
         id="circle40"
         cx="38.303814"
         cy="67.878647"
         r="0.90647399" />
      <path
         id="path41"
         style="fill:#333333;fill-opacity:1;stroke-width:0.382;stroke-dasharray:none"
         d="m 37.918213,68.180941 v 2.530233 l -0.545311,3.933902 1.819282,0.01678 -0.497244,-3.933214 -0.03122,-2.547679 z" />
      <g
         id="g1"
         style="fill:#000000;fill-opacity:1">
        <path
           id="path33"
           style="fill:#000000;fill-opacity:1;stroke-width:1.73468"
           d="m 46.655913,40.994556 18.88141,1.023819 -5.028435,6.975386 -8.110507,3.533888 z" />
        <path
           id="path34"
           style="fill:#000000;fill-opacity:1;stroke-width:1.73468"
           d="m 46.703513,40.970775 -10.542217,15.724304 8.58749,0.172665 7.697194,-4.363875 z" />
      </g>
      <path
         id="path35"
         style="fill:#999999;fill-opacity:1;stroke-width:1.38805"
         d="m 50.566376,48.711475 c -4.597379,2.267942 -8.804011,5.255111 -7.926159,6.703252 l 0.711935,1.429845 5.558204,0.113992 9.163929,-4.578432 3.416963,-4.74408 -0.653737,-1.312961 c -0.685409,-1.428341 -5.673749,0.120442 -10.271135,2.388384 z" />
      <path
         id="path36"
         style="fill:#333333;fill-opacity:1;stroke-width:1.37685"
         d="m 50.657839,48.891899 c -4.523691,2.231129 -8.657036,5.181678 -7.781202,6.63083 l 1.86463,3.744897 17.904712,-8.945461 -1.864629,-3.744898 c -0.68576,-1.428165 -5.599815,0.08351 -10.123511,2.314632 z" />
      <path
         d="m 43.766074,57.309062 1.840945,3.697326 c -0.455822,-1.551168 3.688959,-3.895002 8.026396,-6.032581 4.333826,-2.135801 8.852722,-4.062289 9.881873,-2.904055 l 6.58e-4,-3.12e-4 -1.845167,-3.705819 z"
         style="fill:#333333;stroke-width:1.37685"
         id="path37" />
      <path
         id="path38"
         style="fill:#000000;stroke-width:1.42081"
         d="m 55.253878,58.237622 c -4.326884,2.191346 -8.703761,4.103487 -9.646318,2.779044 l 17.902244,-8.944231 c 0.318707,1.519675 -3.940985,3.979889 -8.255926,6.165187 z" />
      <path
         id="path39"
         style="fill:#999999;fill-opacity:1;stroke-width:1.42081"
         d="m 53.539539,54.794568 c -4.350463,2.143988 -8.508353,4.49594 -8.019204,6.046918 l 17.82843,-8.907352 0.164335,0.142635 -0.0017,-0.01071 -0.08883,-0.168808 c -1.020131,-1.16923 -5.54458,0.759246 -9.883038,2.897312 z" />
      <path
         id="path40"
         style="fill:#000000;stroke-width:1.42081"
         d="m 53.629698,54.975644 c -4.350462,2.143985 -8.508352,4.49594 -8.019204,6.046914 l 17.902243,-8.94423 c -1.020132,-1.169233 -5.54458,0.759246 -9.883039,2.897316 z" />
      <path
         d="m 48.532525,57.744581 c -0.882889,0.558379 -1.626303,1.101857 -2.145457,1.612105 v 3.947789 c 0,2.060242 1.658612,3.718849 3.718845,3.718849 h 18.45773 a 1.7679628,1.7679628 0 0 1 -0.604664,-1.306319 1.7679628,1.7679628 0 0 1 0.08988,-0.553102 h -16.76483 c -1.524247,0 -2.751503,-1.227263 -2.751503,-2.751504 z"
         style="fill:#333333;fill-opacity:1;stroke-width:1.45968"
         id="path127" />
      <path
         id="path126"
         style="fill:#ececec;stroke-width:1.16892"
         d="m 54.43199,54.588125 c -0.266504,0.128829 -0.532683,0.254518 -0.798644,0.385593 -1.850626,0.912028 -3.662709,1.861324 -5.100821,2.770863 v 4.667818 c 0,1.524228 1.227261,2.751504 2.751503,2.751504 h 16.76483 2.60177 a 22.619019,22.619019 0 0 1 -0.694543,-5.352487 22.619019,22.619019 0 0 1 0.666299,-5.223291 h -2.446507 z" />
      <path
         d="m 68.048858,65.163903 a 1.7679628,1.7679628 0 0 0 -0.08988,0.553102 1.7679628,1.7679628 0 0 0 0.604664,1.306319 h 2.326601 a 1.7679628,1.7679628 0 0 0 0.604664,-1.306319 1.7679628,1.7679628 0 0 0 -0.102128,-0.553102 z"
         style="fill:#333333;fill-opacity:1;stroke-width:1.58408"
         id="path125" />
      <path
         d="m 68.175877,54.588125 h 3.418191 a 1.7679628,1.7679628 0 0 0 0.05887,-0.371767 1.7679628,1.7679628 0 0 0 -0.817609,-1.487654 h -1.8772 a 1.7679628,1.7679628 0 0 0 -0.841117,1.487654 1.7679628,1.7679628 0 0 0 0.05887,0.371767 z"
         style="fill:#333333;fill-opacity:1;stroke-width:1.58408"
         id="path123" />
      <path
         d="m 58.607149,52.728704 c -1.298454,0.506706 -2.733282,1.162408 -4.175159,1.859421 h 13.743887 a 1.7679628,1.7679628 0 0 1 -0.05887,-0.371767 1.7679628,1.7679628 0 0 1 0.841117,-1.487654 z"
         style="fill:#333333;fill-opacity:1;stroke-width:1.45968"
         id="path122" />
      <path
         d="m 49.47636,81.18283 a 1.7679628,1.7679628 0 0 0 0.604664,-1.306319 1.7679628,1.7679628 0 0 0 -0.08988,-0.553106 h -3.343919 a 1.7679628,1.7679628 0 0 0 -0.102127,0.553106 1.7679628,1.7679628 0 0 0 0.604663,1.306319 z"
         style="fill:#333333;fill-opacity:1;stroke-width:1.58408"
         id="path8" />
      <path
         d="m 47.204676,66.888206 a 1.7679628,1.7679628 0 0 0 -0.817608,1.487654 1.7679628,1.7679628 0 0 0 0.05887,0.371771 h 3.418193 a 1.7679628,1.7679628 0 0 0 0.05887,-0.371771 1.7679628,1.7679628 0 0 0 -0.841116,-1.487654 z"
         style="fill:#333333;fill-opacity:1;stroke-width:1.58408"
         id="path7" />
      <path
         d="m 49.081877,66.888206 a 1.7679628,1.7679628 0 0 1 0.841116,1.487654 1.7679628,1.7679628 0 0 1 -0.05887,0.371771 H 66.75597 c 1.524251,0 2.751504,1.227253 2.751504,2.751503 v 5.072768 c 0,1.524244 -1.227253,2.751503 -2.751504,2.751503 H 49.99114 a 1.7679628,1.7679628 0 0 1 0.08988,0.553106 1.7679628,1.7679628 0 0 1 -0.604664,1.306319 h 18.457729 c 2.060235,0 3.718848,-1.658607 3.718848,-3.718849 v -6.856929 c 0,-2.060229 -1.658613,-3.718846 -3.718848,-3.718846 z"
         style="fill:#333333;fill-opacity:1;stroke-width:1.45968"
         id="path6" />
      <path
         id="path119"
         style="fill:#e6e6e6;stroke-width:1.16892"
         d="m 47.451796,68.747631 a 22.619019,22.619019 0 0 1 0.615725,5.219147 22.619019,22.619019 0 0 1 -0.695333,5.356627 h 19.383786 c 1.524251,0 2.751504,-1.227259 2.751504,-2.751503 v -5.072768 c 0,-1.52425 -1.227253,-2.751503 -2.751504,-2.751503 z" />
      <path
         id="path10"
         style="fill:#cccccc;stroke-width:3.7051"
         d="m 70.19617,56.788156 -12.082667,1.98e-4 v 0.226378 l 12.061303,7.64e-4 z" />
      <path
         id="path11"
         style="fill:#cccccc;stroke-width:4.25205"
         d="m 70.033546,58.810959 -15.728842,1.95e-4 v 0.226377 l 15.719099,7.65e-4 z" />
      <path
         id="path15"
         style="fill:#cccccc;stroke-width:3.93466"
         d="m 70.034812,60.833758 -13.469271,1.95e-4 v 0.226377 l 13.479463,7.65e-4 z" />
      <path
         id="path16"
         style="fill:#cccccc;stroke-width:4.16353"
         d="m 70.195385,62.856553 -15.259276,1.99e-4 v 0.226378 l 15.289021,7.64e-4 z" />
      <path
         id="path18"
         style="fill:#cccccc;stroke-width:3.7051"
         d="m 47.886031,70.859165 12.082667,1.98e-4 v 0.226378 l -12.061303,7.65e-4 z" />
      <path
         id="path19"
         style="fill:#cccccc;stroke-width:4.25205"
         d="m 48.048655,72.881968 15.728842,1.95e-4 v 0.226377 l -15.719099,7.65e-4 z" />
      <path
         id="path20"
         style="fill:#cccccc;stroke-width:3.93466"
         d="m 48.047389,74.904767 13.469271,1.95e-4 v 0.226378 l -13.479463,7.64e-4 z" />
      <path
         id="path21"
         style="fill:#cccccc;stroke-width:4.16353"
         d="m 47.886816,76.927562 15.259276,1.99e-4 v 0.226378 l -15.289021,7.64e-4 z" />
    </g>
  </g>
</svg>
