<?xml version="1.0" encoding="UTF-8" standalone="no"?>
<!-- Created with Inkscape (http://www.inkscape.org/) -->

<svg
   width="13.744095"
   height="13.744099"
   viewBox="0 0 13.744095 13.744099"
   version="1.1"
   id="svg1"
   xml:space="preserve"
   xmlns="http://www.w3.org/2000/svg"
   xmlns:svg="http://www.w3.org/2000/svg"><defs
     id="defs1" /><g
     id="layer1"
     transform="translate(-8.7304688,-8.7675781)"><g
       id="g23"><path
         id="path1"
         style="fill:#000000;stroke-width:9.1859"
         d="m 15.615234,8.7675781 -4.49414,2.1425779 1.826172,0.732422 v 1.226563 a 3.8669903,3.8669903 0 0 1 2.646484,-1.060547 3.8669903,3.8669903 0 0 1 2.693359,1.09375 v -1.007813 c -0.684106,-0.480908 -1.844131,-0.946919 -2.769531,-1.066406 0.648448,0.0091 1.587666,-0.05022 2.955078,0.742187 l 1.611328,-0.673828 z" /><path
         id="path2"
         style="fill:#000000;stroke-width:9.1859"
         d="m 18.287109,18.439453 a 3.8669903,3.8669903 0 0 1 -2.693359,1.103516 3.8669903,3.8669903 0 0 1 -2.646484,-1.058594 v 0.900391 c 0.683826,0.48144 1.845123,0.946795 2.771484,1.066406 -0.253097,-0.0036 -0.550766,0.0041 -0.900391,-0.0332 0.02056,0.0062 0.04234,0.01377 0.0625,0.01953 -0.06067,-0.01025 -0.123362,-0.02086 -0.1875,-0.0332 -0.0039,-5.23e-4 -0.0078,-0.0014 -0.01172,-0.002 -0.520617,-0.07098 -1.150968,-0.248307 -1.916016,-0.691406 l -1.644531,0.658203 4.49414,2.142578 4.46875,-2.128907 -1.796875,-0.751953 z" /><path
         id="path3"
         style="fill:#000000;stroke-width:9.1859"
         d="m 20.332031,11.158203 -0.728515,1.826172 h -0.002 -1.232421 a 3.8669903,3.8669903 0 0 1 1.091797,2.691406 3.8669903,3.8669903 0 0 1 -1.060547,2.650391 h 0.927734 c 0.48144,-0.683826 0.948748,-1.845123 1.068359,-2.771484 -0.0091,0.64597 0.04854,1.57858 -0.734375,2.9375 l 0.683594,1.628906 2.128906,-4.46875 z" /><path
         id="path4"
         style="fill:#000000;stroke-width:9.1859"
         d="m 10.873047,11.158203 -2.1425782,4.494141 2.1289062,4.46875 0.751953,-1.794922 h 1.177734 a 3.8669903,3.8669903 0 0 1 -1.0625,-2.650391 3.8669903,3.8669903 0 0 1 1.105469,-2.691406 h -0.943359 c -0.484335,0.682228 -0.955882,1.851584 -1.076172,2.783203 0.0036,-0.259857 -0.0037,-0.565892 0.03711,-0.927734 -0.0036,0.01215 -0.0083,0.0251 -0.01172,0.03711 0.0074,-0.04378 0.01516,-0.08943 0.02344,-0.134765 0.0013,-0.0097 0.0045,-0.01949 0.0059,-0.0293 0.07216,-0.513119 0.247036,-1.13263 0.677734,-1.88086 z" /><path
         id="path5"
         style="fill:#000000;stroke-width:13.3731"
         d="m 15.593214,12.450447 a 3.2262835,3.2262835 0 0 0 -3.225825,3.225825 3.2262835,3.2262835 0 0 0 3.225825,3.227642 3.2262835,3.2262835 0 0 0 3.225825,-3.227642 3.2262835,3.2262835 0 0 0 -3.225825,-3.225825 z m 0,1.829058 a 1.3973713,1.3973713 0 0 1 1.398585,1.396767 1.3973713,1.3973713 0 0 1 -1.398585,1.398584 1.3973713,1.3973713 0 0 1 -1.396767,-1.398584 1.3973713,1.3973713 0 0 1 1.396767,-1.396767 z" /><circle
         style="fill:#000000;stroke-width:2.83938"
         id="circle5"
         cx="15.593611"
         cy="15.676908"
         r="0.6850099" /></g></g></svg>
