<?xml version="1.0" encoding="UTF-8" standalone="no"?>
<!-- Created with Inkscape (http://www.inkscape.org/) -->

<svg
   width="131.76157mm"
   height="149.28596mm"
   viewBox="0 0 131.76157 149.28596"
   version="1.1"
   id="svg1"
   xmlns="http://www.w3.org/2000/svg"
   xmlns:svg="http://www.w3.org/2000/svg">
  <defs
     id="defs1" />
  <g
     id="layer1"
     transform="translate(-37.146752,-73.246221)">
    <g
       id="g1"
       transform="matrix(1.4191238,0,0,1.4191238,-34.685231,-142.69647)">
      <g
         id="g66"
         transform="translate(-5.4255714,4.5836723)">
        <path
           id="path31"
           style="fill:#000000;stroke-width:4.21048"
           d="M 60.638873,188.75435 V 217.2632 H 62.75554 L 62.101316,188.75435 Z" />
        <circle
           style="fill:#000000;stroke-width:9.28532"
           id="circle40"
           cx="61.647594"
           cy="217.97429"
           r="2.3713615" />
        <path
           id="path41"
           style="fill:#000000;stroke-width:5.76448"
           d="m 60.638853,218.7651 v 6.61916 l -1.426551,10.2912 4.759293,0.0439 -1.300803,-10.2894 -0.08167,-6.6648 z" />
      </g>
      <path
         id="path33"
         style="fill:#000000;stroke-width:4.53797"
         d="m 78.071349,152.22842 49.394301,2.67834 -13.15453,18.24781 -21.217311,9.24475 z" />
      <path
         id="path34"
         style="fill:#000000;stroke-width:4.53797"
         d="m 78.195872,152.16621 -27.578736,41.13522 22.465114,0.4517 20.136079,-11.41602 z" />
      <path
         id="path35"
         style="fill:#666666;stroke-width:3.63118"
         d="m 88.30123,172.4161 c -12.026873,5.933 -23.03154,13.74752 -20.735055,17.5359 l 1.862443,3.74051 14.540418,0.29821 23.973094,-11.97731 8.93887,-12.41065 -1.71019,-3.43474 c -1.79305,-3.73658 -14.84269,0.31508 -26.86958,6.24808 z" />
      <path
         id="path36"
         style="fill:#333333;stroke-width:3.60189"
         d="m 88.5405,172.88809 c -11.834104,5.8367 -22.647051,13.55542 -20.355844,17.34644 l 4.877926,9.79676 46.839228,-23.40158 -4.87792,-9.79676 c -1.79397,-3.73612 -14.64927,0.21846 -26.48339,6.05514 z" />
      <path
         d="m 70.51145,194.90763 4.815962,9.67231 c -1.192442,-4.0579 9.650422,-10.18944 20.997277,-15.7814 11.337411,-5.58732 23.158971,-10.62707 25.851261,-7.59709 l 0.002,-8.2e-4 -4.82701,-9.69453 z"
         style="fill:#333333;stroke-width:3.60189"
         id="path37" />
      <path
         id="path38"
         style="fill:#000000;stroke-width:3.71687"
         d="m 100.56387,197.33677 c -11.319251,5.73262 -22.769286,10.73484 -25.235041,7.27006 L 122.1616,181.20847 c 0.83375,3.97551 -10.30972,10.4115 -21.59773,16.1283 z" />
      <path
         id="path39"
         style="fill:#666666;stroke-width:3.71687"
         d="m 96.079109,188.32964 c -11.380933,5.60874 -22.258091,11.76151 -20.978465,15.81891 l 46.832776,-23.39836 c -2.6687,-3.05874 -14.50478,1.98621 -25.854311,7.57945 z" />
      <path
         id="path40"
         style="fill:#000000;stroke-width:3.71687"
         d="m 96.314969,188.80334 c -11.380934,5.60873 -22.258091,11.76151 -20.978465,15.8189 l 46.832776,-23.39836 c -2.6687,-3.05874 -14.50478,1.98621 -25.854311,7.57946 z" />
      <path
         d="m 82.980619,196.04696 c -2.309663,1.46074 -4.254454,2.88249 -5.612577,4.21731 v 10.32753 c 0,5.38965 4.338978,9.72861 9.728605,9.72861 h 48.285943 a 4.6250405,4.6250405 0 0 1 -1.58182,-3.41736 4.6250405,4.6250405 0 0 1 0.23513,-1.44694 H 90.17863 c -3.987474,0 -7.198011,-3.21055 -7.198011,-7.19801 z"
         style="stroke-width:3.81856"
         id="path127" />
      <path
         id="path126"
         style="fill:#e6e6e6;stroke-width:3.05792"
         d="m 98.413789,187.78958 c -0.69719,0.33702 -1.39352,0.66583 -2.08928,1.00872 -4.841288,2.38589 -9.581747,4.86928 -13.34389,7.24866 v 12.21114 c 0,3.98743 3.210549,7.19801 7.198011,7.19801 h 43.85727 6.8063 a 59.171993,59.171993 0 0 1 -1.81694,-14.00225 59.171993,59.171993 0 0 1 1.74305,-13.66428 h -6.40013 z" />
      <path
         d="m 134.0359,215.45611 a 4.6250405,4.6250405 0 0 0 -0.23513,1.44694 4.6250405,4.6250405 0 0 0 1.58182,3.41736 h 6.08645 a 4.6250405,4.6250405 0 0 0 1.58182,-3.41736 4.6250405,4.6250405 0 0 0 -0.26717,-1.44694 z"
         style="stroke-width:4.14401"
         id="path125" />
      <path
         d="m 134.36818,187.78958 h 8.94209 a 4.6250405,4.6250405 0 0 0 0.154,-0.97255 4.6250405,4.6250405 0 0 0 -2.13889,-3.89175 h -4.91081 a 4.6250405,4.6250405 0 0 0 -2.20038,3.89175 4.6250405,4.6250405 0 0 0 0.15399,0.97255 z"
         style="stroke-width:4.14401"
         id="path123" />
      <path
         d="m 109.33612,182.92528 c -3.39679,1.32556 -7.15034,3.0409 -10.922331,4.8643 h 35.954391 a 4.6250405,4.6250405 0 0 1 -0.15399,-0.97255 4.6250405,4.6250405 0 0 1 2.20038,-3.89175 z"
         style="stroke-width:3.81856"
         id="path122" />
      <path
         d="m 85.449719,257.36208 a 4.6250405,4.6250405 0 0 0 1.581816,-3.41737 4.6250405,4.6250405 0 0 0 -0.235128,-1.44694 h -8.747786 a 4.6250405,4.6250405 0 0 0 -0.267168,1.44694 4.6250405,4.6250405 0 0 0 1.581816,3.41737 z"
         style="stroke-width:4.14401"
         id="path8" />
      <path
         d="m 79.50693,219.96694 a 4.6250405,4.6250405 0 0 0 -2.138888,3.89175 4.6250405,4.6250405 0 0 0 0.153996,0.97256 h 8.94209 a 4.6250405,4.6250405 0 0 0 0.153995,-0.97256 4.6250405,4.6250405 0 0 0 -2.200382,-3.89175 z"
         style="stroke-width:4.14401"
         id="path7" />
      <path
         d="m 84.417741,219.96694 a 4.6250405,4.6250405 0 0 1 2.200382,3.89175 4.6250405,4.6250405 0 0 1 -0.153995,0.97256 h 44.189552 c 3.98748,0 7.19801,3.21053 7.19801,7.19801 v 13.2705 c 0,3.98747 -3.21053,7.19801 -7.19801,7.19801 H 86.796407 a 4.6250405,4.6250405 0 0 1 0.235128,1.44694 4.6250405,4.6250405 0 0 1 -1.581816,3.41737 h 48.285941 c 5.38963,0 9.72861,-4.33896 9.72861,-9.72861 v -17.93792 c 0,-5.38962 -4.33898,-9.72861 -9.72861,-9.72861 z"
         style="stroke-width:3.81856"
         id="path6" />
      <path
         id="path119"
         style="fill:#e6e6e6;stroke-width:3.05792"
         d="m 80.153402,224.83125 a 59.171993,59.171993 0 0 1 1.610754,13.65343 59.171993,59.171993 0 0 1 -1.81901,14.01309 h 50.708534 c 3.98748,0 7.19801,-3.21054 7.19801,-7.19801 v -13.2705 c 0,-3.98748 -3.21053,-7.19801 -7.19801,-7.19801 z" />
      <g
         id="g16"
         transform="matrix(0.80553791,0,0,1,20.540902,4.8643053)">
        <path
           id="path10"
           style="fill:#cccccc;stroke-width:10.7994"
           d="m 147.86694,188.68062 -39.23912,5.2e-4 v 0.59221 l 39.16974,0.002 z" />
        <path
           id="path11"
           style="fill:#cccccc;stroke-width:12.3936"
           d="m 147.33881,193.97233 -51.080271,5.1e-4 v 0.59221 l 51.048631,0.002 z" />
        <path
           id="path15"
           style="fill:#cccccc;stroke-width:11.4685"
           d="m 147.34292,199.26403 -43.74219,5.1e-4 v 0.59221 l 43.77529,0.002 z" />
        <path
           id="path16"
           style="fill:#cccccc;stroke-width:12.1356"
           d="m 147.86439,204.55572 -49.55533,5.2e-4 v 0.59221 l 49.65193,0.002 z" />
      </g>
      <g
         id="g21"
         transform="matrix(-0.80553791,0,0,1,200.4018,41.674461)">
        <path
           id="path18"
           style="fill:#cccccc;stroke-width:10.7994"
           d="m 147.86694,188.68062 -39.23912,5.2e-4 v 0.59221 l 39.16974,0.002 z" />
        <path
           id="path19"
           style="fill:#cccccc;stroke-width:12.3936"
           d="m 147.33881,193.97233 -51.080271,5.1e-4 v 0.59221 l 51.048631,0.002 z" />
        <path
           id="path20"
           style="fill:#cccccc;stroke-width:11.4685"
           d="m 147.34292,199.26403 -43.74219,5.1e-4 v 0.59221 l 43.77529,0.002 z" />
        <path
           id="path21"
           style="fill:#cccccc;stroke-width:12.1356"
           d="m 147.86439,204.55572 -49.55533,5.2e-4 v 0.59221 l 49.65193,0.002 z" />
      </g>
    </g>
  </g>
</svg>
