<?xml version="1.0" encoding="UTF-8" standalone="no"?>
<!-- Created with Inkscape (http://www.inkscape.org/) -->

<svg
   width="107.81423mm"
   height="122.1536mm"
   viewBox="0 0 107.81423 122.1536"
   version="1.1"
   id="svg1"
   xmlns="http://www.w3.org/2000/svg"
   xmlns:svg="http://www.w3.org/2000/svg">
  <defs
     id="defs1" />
  <g
     id="layer1"
     transform="translate(-49.120427,-86.812406)">
    <g
       id="g1">
      <g
         id="g66"
         transform="matrix(1.1612015,0,0,1.1612015,-15.956448,-84.560656)">
        <path
           id="path31"
           style="fill:#000000;stroke-width:4.21048"
           d="M 60.638873,188.75435 V 217.2632 H 62.75554 L 62.101316,188.75435 Z" />
        <circle
           style="fill:#000000;stroke-width:9.28532"
           id="circle40"
           cx="61.647594"
           cy="217.97429"
           r="2.3713615" />
        <path
           id="path41"
           style="fill:#000000;stroke-width:5.76448"
           d="m 60.638853,218.7651 v 6.61916 l -1.426551,10.2912 4.759293,0.0439 -1.300803,-10.2894 -0.08167,-6.6648 z" />
      </g>
      <path
         id="path33"
         style="fill:#000000;stroke-width:5.2695"
         d="m 81.000301,86.884647 57.356739,3.110092 -15.27506,21.189381 -24.637576,10.73502 z" />
      <path
         id="path34"
         style="fill:#000000;stroke-width:5.2695"
         d="m 81.144898,86.812408 -32.02447,47.766282 26.086524,0.52451 23.382045,-13.2563 z" />
      <path
         id="path35"
         style="fill:#666666;stroke-width:4.21653"
         d="m 92.879255,110.32661 c -13.965623,6.88941 -26.744259,15.96364 -24.077577,20.36271 l 2.162671,4.34349 16.884355,0.34628 27.837596,-13.90807 10.37983,-14.41126 -1.98588,-3.98843 c -2.08209,-4.338921 -17.23535,0.36587 -31.200995,7.25528 z" />
      <path
         id="path36"
         style="fill:#333333;stroke-width:4.18252"
         d="m 93.157095,110.87469 c -13.741779,6.77758 -26.297789,15.74057 -23.637236,20.14271 l 5.664255,11.37601 54.389786,-27.17395 -5.66425,-11.37601 c -2.08316,-4.338389 -17.01076,0.25367 -30.752555,7.03124 z" />
      <path
         d="m 72.221735,136.44381 5.592303,11.2315 c -1.384666,-4.71204 11.206084,-11.83199 24.382072,-18.32539 13.16502,-6.488 26.89223,-12.34016 30.01852,-8.82175 l 0.002,-9.5e-4 -5.60513,-11.2573 z"
         style="fill:#333333;stroke-width:4.18252"
         id="path37" />
      <path
         id="path38"
         style="fill:#000000;stroke-width:4.31604"
         d="m 107.11865,139.26453 c -13.143931,6.65673 -26.439729,12.46531 -29.302967,8.442 l 54.382287,-27.17021 c 0.96815,4.61637 -11.97167,12.08985 -25.07932,18.72821 z" />
      <path
         id="path39"
         style="fill:#666666;stroke-width:4.31604"
         d="m 101.91094,128.80544 c -13.215557,6.51287 -25.846129,13.65748 -24.360226,18.36894 L 131.933,120.00417 c -3.09889,-3.55181 -16.84297,2.30639 -30.02206,8.80127 z" />
      <path
         id="path40"
         style="fill:#000000;stroke-width:4.31604"
         d="m 102.18482,129.3555 c -13.215557,6.51286 -25.846128,13.65748 -24.360225,18.36893 l 54.382285,-27.17021 c -3.09889,-3.55182 -16.84297,2.30639 -30.02206,8.80128 z" />
      <path
         d="m 86.700953,137.7668 c -2.681984,1.69621 -4.940278,3.34715 -6.517333,4.89715 v 11.99234 c 0,6.25847 5.038428,11.29688 11.296871,11.29688 H 147.5502 a 5.370604,5.370604 0 0 1 -1.83681,-3.96825 5.370604,5.370604 0 0 1 0.27303,-1.68018 H 95.059294 c -4.630261,0 -8.358341,-3.7281 -8.358341,-8.35834 z"
         style="stroke-width:4.43412"
         id="path127" />
      <path
         id="path126"
         style="fill:#ffffff;stroke-width:3.55086"
         d="m 104.62197,128.17832 c -0.80957,0.39135 -1.61815,0.77316 -2.42607,1.17133 -5.621713,2.7705 -11.126341,5.65421 -15.494947,8.41715 v 14.1796 c 0,4.6302 3.728094,8.35834 8.358341,8.35834 h 50.927126 7.90349 a 68.710607,68.710607 0 0 1 -2.10984,-16.25944 68.710607,68.710607 0 0 1 2.02404,-15.86698 h -7.43184 z" />
      <path
         d="m 145.98642,160.30474 a 5.370604,5.370604 0 0 0 -0.27303,1.68018 5.370604,5.370604 0 0 0 1.83681,3.96825 h 7.0676 a 5.370604,5.370604 0 0 0 1.83681,-3.96825 5.370604,5.370604 0 0 0 -0.31024,-1.68018 z"
         style="stroke-width:4.81203"
         id="path125" />
      <path
         d="m 146.37227,128.17832 h 10.38356 a 5.370604,5.370604 0 0 0 0.17883,-1.12933 5.370604,5.370604 0 0 0 -2.48368,-4.5191 h -5.70244 a 5.370604,5.370604 0 0 0 -2.55509,4.5191 5.370604,5.370604 0 0 0 0.17882,1.12933 z"
         style="stroke-width:4.81203"
         id="path123" />
      <path
         d="m 117.305,122.52989 c -3.94436,1.53924 -8.30299,3.53109 -12.68303,5.64843 h 41.7503 a 5.370604,5.370604 0 0 1 -0.17882,-1.12933 5.370604,5.370604 0 0 1 2.55509,-4.5191 z"
         style="stroke-width:4.43412"
         id="path122" />
      <path
         d="m 89.568076,208.96601 a 5.370604,5.370604 0 0 0 1.836807,-3.96825 5.370604,5.370604 0 0 0 -0.273031,-1.68019 H 80.97391 a 5.370604,5.370604 0 0 0 -0.310236,1.68019 5.370604,5.370604 0 0 0 1.836807,3.96825 z"
         style="stroke-width:4.81203"
         id="path8" />
      <path
         d="m 82.6673,165.54272 a 5.370604,5.370604 0 0 0 -2.48368,4.5191 5.370604,5.370604 0 0 0 0.178821,1.12934 h 10.383568 a 5.370604,5.370604 0 0 0 0.178819,-1.12934 5.370604,5.370604 0 0 0 -2.555087,-4.5191 z"
         style="stroke-width:4.81203"
         id="path7" />
      <path
         d="m 88.369741,165.54272 a 5.370604,5.370604 0 0 1 2.555087,4.5191 5.370604,5.370604 0 0 1 -0.178819,1.12934 h 51.312971 c 4.63027,0 8.35834,3.72807 8.35834,8.35834 v 15.40973 c 0,4.63025 -3.72807,8.35834 -8.35834,8.35834 H 91.131852 a 5.370604,5.370604 0 0 1 0.273031,1.68019 5.370604,5.370604 0 0 1 -1.836807,3.96825 h 56.069704 c 6.25845,0 11.29688,-5.03841 11.29688,-11.29688 v -20.82954 c 0,-6.25843 -5.03843,-11.29687 -11.29688,-11.29687 z"
         style="stroke-width:4.43412"
         id="path6" />
      <path
         id="path119"
         style="fill:#ffffff;stroke-width:3.55086"
         d="m 83.417984,171.19116 a 68.710607,68.710607 0 0 1 1.87041,15.85439 68.710607,68.710607 0 0 1 -2.112237,16.27202 h 58.882823 c 4.63027,0 8.35834,-3.72809 8.35834,-8.35834 V 179.5495 c 0,-4.63027 -3.72807,-8.35834 -8.35834,-8.35834 z" />
      <g
         id="g16"
         transform="matrix(0.93539183,0,0,1.1612015,14.19586,-84.234784)">
        <path
           id="path10"
           style="fill:#cccccc;stroke-width:10.7994"
           d="m 147.86694,188.68062 -39.23912,5.2e-4 v 0.59221 l 39.16974,0.002 z" />
        <path
           id="path11"
           style="fill:#cccccc;stroke-width:12.3936"
           d="m 147.33881,193.97233 -51.080271,5.1e-4 v 0.59221 l 51.048631,0.002 z" />
        <path
           id="path15"
           style="fill:#cccccc;stroke-width:11.4685"
           d="m 147.34292,199.26403 -43.74219,5.1e-4 v 0.59221 l 43.77529,0.002 z" />
        <path
           id="path16"
           style="fill:#cccccc;stroke-width:12.1356"
           d="m 147.86439,204.55572 -49.55533,5.2e-4 v 0.59221 l 49.65193,0.002 z" />
      </g>
      <g
         id="g21"
         transform="matrix(-0.93539183,0,0,1.1612015,223.0506,-41.490776)">
        <path
           id="path18"
           style="fill:#cccccc;stroke-width:10.7994"
           d="m 147.86694,188.68062 -39.23912,5.2e-4 v 0.59221 l 39.16974,0.002 z" />
        <path
           id="path19"
           style="fill:#cccccc;stroke-width:12.3936"
           d="m 147.33881,193.97233 -51.080271,5.1e-4 v 0.59221 l 51.048631,0.002 z" />
        <path
           id="path20"
           style="fill:#cccccc;stroke-width:11.4685"
           d="m 147.34292,199.26403 -43.74219,5.1e-4 v 0.59221 l 43.77529,0.002 z" />
        <path
           id="path21"
           style="fill:#cccccc;stroke-width:12.1356"
           d="m 147.86439,204.55572 -49.55533,5.2e-4 v 0.59221 l 49.65193,0.002 z" />
      </g>
    </g>
  </g>
</svg>
