<?xml version="1.0" encoding="UTF-8" standalone="no"?>
<!-- Created with Inkscape (http://www.inkscape.org/) -->

<svg
   width="210mm"
   height="297mm"
   viewBox="0 0 210 297"
   version="1.1"
   id="svg1"
   inkscape:version="1.3.2 (091e20e, 2023-11-25, custom)"
   sodipodi:docname="sapt logo.svg"
   xmlns:inkscape="http://www.inkscape.org/namespaces/inkscape"
   xmlns:sodipodi="http://sodipodi.sourceforge.net/DTD/sodipodi-0.dtd"
   xmlns="http://www.w3.org/2000/svg"
   xmlns:svg="http://www.w3.org/2000/svg">
  <sodipodi:namedview
     id="namedview1"
     pagecolor="#ffffff"
     bordercolor="#000000"
     borderopacity="0.25"
     inkscape:showpageshadow="2"
     inkscape:pageopacity="0.0"
     inkscape:pagecheckerboard="0"
     inkscape:deskcolor="#d1d1d1"
     inkscape:document-units="mm"
     inkscape:zoom="0.5"
     inkscape:cx="60"
     inkscape:cy="459"
     inkscape:window-width="1920"
     inkscape:window-height="1001"
     inkscape:window-x="-9"
     inkscape:window-y="-9"
     inkscape:window-maximized="1"
     inkscape:current-layer="layer1" />
  <defs
     id="defs1" />
  <g
     inkscape:label="Layer 1"
     inkscape:groupmode="layer"
     id="layer1">
    <g
       id="g148-3-6"
       transform="matrix(4.1443471,0,0,4.1443471,-43.865183,-252.80986)"
       style="fill:#2b0000">
      <g
         id="g99-8-77-1-7"
         transform="matrix(0.26709019,0,0,0.29508898,11.385432,53.936231)"
         style="fill:#2b0000">
        <path
           d="m 122.68717,136.95312 v 0.21246 a 32.988217,7.8954418 0 0 1 1.46712,0.42564 32.778509,11.49016 0 0 0 -1.46712,-0.6381 z"
           style="fill:#2b0000;stroke-width:0.166851"
           id="path38-6-5-3-1" />
        <path
           d="m 116.79585,135.0022 v 0.85451 a 32.988217,7.8954418 0 0 1 2.94551,0.57315 v -0.5753 a 32.778509,11.49016 0 0 0 -2.94551,-0.85236 z"
           style="fill:#2b0000;stroke-width:0.166851"
           id="path37-1-6-5-6" />
        <path
           d="m 110.90423,133.80171 v 1.24607 a 32.988217,7.8954418 0 0 1 2.94581,0.35673 v -1.0738 a 32.778509,11.49016 0 0 0 -2.94581,-0.529 z"
           style="fill:#2b0000;stroke-width:0.166851"
           id="path36-3-3-9-9" />
        <path
           d="m 105.01292,133.08214 v 1.48113 a 32.988217,7.8954418 0 0 1 2.9458,0.20744 v -1.37992 a 32.778509,11.49016 0 0 0 -2.9458,-0.30865 z"
           style="fill:#2b0000;stroke-width:0.166851"
           id="path35-4-3-5-7" />
        <path
           d="m 99.121597,132.80293 v 1.57373 a 32.988217,7.8954418 0 0 1 2.945813,0.061 v -1.54322 a 32.778509,11.49016 0 0 0 -2.945813,-0.0915 z"
           style="fill:#2b0000;stroke-width:0.166851"
           id="path34-3-6-3-7" />
        <path
           d="m 93.230283,132.88045 v 1.54788 a 32.988217,7.8954418 0 0 1 2.945811,-0.0549 v -1.57517 a 32.778509,11.49016 0 0 0 -2.945811,0.0822 z"
           style="fill:#2b0000;stroke-width:0.166851"
           id="path33-2-1-2-2" />
        <path
           d="m 87.338967,133.36889 v 1.38747 a 32.988217,7.8954418 0 0 1 2.945506,-0.20134 v -1.48508 a 32.778509,11.49016 0 0 0 -2.945506,0.29895 z"
           style="fill:#2b0000;stroke-width:0.166851"
           id="path32-0-80-0-2" />
        <path
           d="m 81.44765,134.28765 v 1.08851 a 32.988217,7.8954418 0 0 1 2.945506,-0.3492 v -1.25719 a 32.778509,11.49016 0 0 0 -2.945506,0.51788 z"
           style="fill:#2b0000;stroke-width:0.166851"
           id="path31-3-8-2-4" />
        <path
           d="m 75.55603,135.78422 v 0.59934 a 32.988217,7.8954418 0 0 1 2.94581,-0.5631 v -0.87353 a 32.778509,11.49016 0 0 0 -2.94581,0.83729 z"
           style="fill:#2b0000;stroke-width:0.166851"
           id="path30-4-9-0-5" />
        <path
           d="m 72.610524,137.10672 v -0.24261 a 32.778509,11.49016 0 0 0 -1.676579,0.72962 32.988217,7.8954418 0 0 1 1.676579,-0.48701 z"
           style="fill:#2b0000;stroke-width:0.166851"
           id="path29-8-0-2-5" />
      </g>
      <path
         d="m 36.800451,87.187286 v -0.694203 c -1.617759,1.259948 -3.737715,2.569739 -6.042498,3.725711 -2.024981,1.01232 -4.087445,1.854105 -5.936849,2.423087 l 4.035795,1.984538 -1.953059,-1.530632 c 5.727672,-2.985675 7.257093,-3.865888 9.896611,-5.908501 z"
         style="fill:#2b0000;stroke-width:0.0456758"
         id="path94-9-9-8-7" />
      <path
         d="m 34.355651,86.102189 2.645485,3.286371 2.078745,-4.191122 c 0.04491,-0.01568 -4.72423,0.904751 -4.72423,0.904751 z"
         style="fill:#2b0000;stroke-width:0.153313"
         id="path39-1-8-8-1"
         sodipodi:nodetypes="cccc" />
      <g
         id="g101-5-0-4-9"
         transform="matrix(0.31575258,0,0,0.29508898,5.260242,54.111901)"
         style="fill:#2b0000">
        <g
           id="g100-9-00-9-4"
           style="fill:#2b0000">
          <path
             d="m 125.54479,154.55336 v -2.55644 c -14.83052,-0.90794 -30.974109,-1.25264 -44.862376,2.10582 14.049257,-0.70049 22.556186,-1.91676 44.862376,0.45062 z"
             style="fill:#2b0000;stroke-width:0.170718"
             id="path99-4-0-8-0"
             sodipodi:nodetypes="cccc" />
        </g>
        <path
           d="m 124.61855,138.47135 c -0.27831,4.51048 -0.70671,9.36878 -1.24511,14.36215 l 2.11248,0.13317 c 0.0157,-0.40027 0.0467,-0.56923 0.0579,-0.9626 0.15219,-5.35187 -0.12843,-10.26467 -0.81688,-13.50157 z"
           style="fill:#2b0000;stroke-width:0.16924"
           id="path98-3-8-8-1"
           sodipodi:nodetypes="cccscc" />
      </g>
      <path
         d="m 39.027592,87.067554 -0.254765,0.512113 c 2.339857,1.768326 4.042743,2.735235 9.377206,5.515943 l -1.952853,1.530655 4.03593,-1.984375 c -1.849403,-0.568978 -3.91213,-1.410791 -5.937106,-2.423107 -1.956382,-0.98123 -3.773405,-2.072974 -5.268412,-3.151229 z"
         style="fill:#2b0000;stroke-width:0.0456758"
         id="path148-2-2" />
    </g>
  </g>
</svg>
